<?xml version="1.0" encoding="UTF-8"?>
<svg version="1.1" xmlns="http://www.w3.org/2000/svg" width="160" height="160">
<path d="M0 0 C0.90369324 -0.00350464 1.80738647 -0.00700928 2.73846436 -0.01062012 C5.69811904 -0.01935585 8.65753078 -0.01361726 11.6171875 -0.00683594 C13.69026739 -0.00818493 15.76334697 -0.01012742 17.83642578 -0.01263428 C22.17027819 -0.0155745 26.50404787 -0.01132341 30.83789062 -0.00195312 C36.37568753 0.00944068 41.91329052 0.0028753 47.45108032 -0.00909805 C51.7286117 -0.01634643 56.00609758 -0.01401506 60.28363037 -0.00884247 C62.32484968 -0.00751421 64.36607321 -0.00912464 66.4072876 -0.01380157 C69.26642708 -0.01891591 72.1252583 -0.01108802 74.984375 0 C75.81684753 -0.00404846 76.64932007 -0.00809692 77.50701904 -0.01226807 C84.46454789 0.0373817 90.80739536 0.24260495 96.51722717 4.53048706 C100.02462575 9.54074072 99.15815973 16.07475927 99.09155273 21.91162109 C99.09341808 23.30501746 99.0974575 24.69841236 99.10350037 26.09179688 C99.11345642 29.86460487 99.09233762 33.6366589 99.06502032 37.40935755 C99.04115256 41.36060764 99.04413499 45.31184374 99.04371643 49.26315308 C99.03909205 55.89577974 99.01547278 62.52811885 98.97924805 69.16064453 C98.93748223 76.82810718 98.91993099 84.49531115 98.9166283 92.16288102 C98.91302868 100.33008383 98.89415719 108.49719366 98.86950803 116.66435766 C98.86328094 119.01671861 98.85964372 121.36907249 98.85647392 123.72143936 C98.85057201 127.4167514 98.83425535 131.1118788 98.80986977 134.80711365 C98.79888352 136.8101351 98.79759082 138.81320234 98.79656982 140.81625366 C98.7865947 142.00789124 98.77661957 143.19952881 98.76634216 144.42727661 C98.76169166 145.46295336 98.75704115 146.4986301 98.75224972 147.56569099 C98.48533885 150.32971088 97.99279817 151.94144834 96.4921875 154.25878906 C90.43465063 158.6791538 84.23349222 158.40772661 77.03955078 158.40405273 C75.62154678 158.40909065 75.62154678 158.40909065 74.17489624 158.41423035 C71.05408408 158.4237186 67.93332568 158.42568237 64.8125 158.42675781 C62.63923114 158.42997177 60.4659625 158.43333595 58.29269409 158.43684387 C53.7382558 158.44282975 49.18383648 158.44468432 44.62939453 158.4440918 C38.79984156 158.44399018 32.97041041 158.45764404 27.14088631 158.47486401 C22.6524093 158.48599425 18.16396165 158.48801069 13.67547226 158.48748207 C11.52653458 158.48866057 9.3775961 158.49307507 7.22867203 158.50081444 C4.22023281 158.51063525 1.21205693 158.50772798 -1.79638672 158.50170898 C-2.67973694 158.50732849 -3.56308716 158.512948 -4.47320557 158.51873779 C-10.301943 158.48917425 -15.91952666 158.37755462 -20.62713814 154.52391338 C-26.10309206 147.92855766 -24.79723518 136.05064024 -24.76660156 127.88769531 C-24.7701062 126.7152829 -24.77361084 125.54287048 -24.77722168 124.33493042 C-24.78595406 120.49698799 -24.78021992 116.65923305 -24.7734375 112.82128906 C-24.77478659 110.13191503 -24.77672671 107.44254648 -24.77923584 104.75317383 C-24.7828589 99.13165289 -24.77812025 93.51018477 -24.76855469 87.88867188 C-24.75767333 81.41980919 -24.76120009 74.95107265 -24.7722075 68.48221302 C-24.78132797 62.89540699 -24.78254253 57.30863859 -24.77733016 51.72182751 C-24.77423646 48.39941709 -24.77453177 45.07707783 -24.78040314 41.75466919 C-24.78551939 38.04632207 -24.7776867 34.33821239 -24.76660156 30.62988281 C-24.77065002 29.55108856 -24.77469849 28.47229431 -24.77886963 27.36080933 C-24.67771228 8.96335827 -24.67771228 8.96335827 -20.6904335 3.99360275 C-15.03370463 -0.50253775 -6.91932362 -0.0336499 0 0 Z " fill="#C4B39C" transform="translate(42.5078125,0.7412109375)"/>
<path d="M0 0 C4.67055727 -0.18315911 7.73492515 0.21461983 12 2 C14.59291951 2.46096347 17.18513203 2.87466628 19.79296875 3.2421875 C22 4 22 4 23.30078125 6.0703125 C23.64689453 7.02550781 23.64689453 7.02550781 24 8 C23.35546875 8.30550781 22.7109375 8.61101563 22.046875 8.92578125 C18.82475451 12.19094533 19.32522795 15.76614829 19.25 20.1875 C19.20552734 21.4549707 19.20552734 21.4549707 19.16015625 22.74804688 C19.0895301 24.83151822 19.04249205 26.91576506 19 29 C19.63550781 28.84789063 20.27101562 28.69578125 20.92578125 28.5390625 C29.14024564 27.09866087 39.00262219 25.70344051 46.43359375 29.97265625 C48.85907577 32.19396126 50.97521505 34.41277478 53 37 C53.33 37.33 53.66 37.66 54 38 C54.25 40.8125 54.25 40.8125 54 44 C53.53078125 44.55945312 53.0615625 45.11890625 52.578125 45.6953125 C50.37083763 48.91882623 50.04769164 52.27852424 49.5 56.0625 C48.24756379 63.91076493 46.51627434 71.45117698 44 79 C41.375 79.8125 41.375 79.8125 38 80 C36.67331641 78.77281768 35.34997324 77.54152801 34.0546875 76.28125 C29.43008752 73.39746902 23.32473467 73.48870852 18 73 C18.01659668 74.16225098 18.03319336 75.32450195 18.05029297 76.52197266 C18.04838415 80.61145596 17.68796812 84.58569471 17.1953125 88.6484375 C17.11127167 89.34587067 17.02723083 90.04330383 16.94064331 90.76187134 C16.7630409 92.22597084 16.5830923 93.68978752 16.40087891 95.15332031 C16.12662787 97.36189057 15.86159647 99.57142651 15.59765625 101.78125 C13.43419924 119.62964485 13.43419924 119.62964485 12 124 C11.01 124.495 11.01 124.495 10 125 C9.2886929 107.32326197 8.83890681 89.69298938 9 72 C6.45724602 72.2838704 3.91608446 72.57683422 1.375 72.875 C0.66214844 72.95363281 -0.05070312 73.03226562 -0.78515625 73.11328125 C-5.05908712 73.62301612 -9.01613984 74.27206065 -13 76 C-14.91839859 79.0005907 -14.91839859 79.0005907 -16 82 C-16.99 82 -17.98 82 -19 82 C-19.16604736 81.11852295 -19.33209473 80.2370459 -19.50317383 79.32885742 C-20.13148789 76.0050913 -20.76379894 72.68213434 -21.39868164 69.35961914 C-21.67075202 67.93153053 -21.94130454 66.50315176 -22.21020508 65.07446289 C-23.66212867 57.36601937 -25.18914095 49.74897179 -27.45581055 42.2277832 C-28 40 -28 40 -28 36 C-24.69865082 33.43228397 -23.27125508 33 -19 33 C-19 33.66 -19 34.32 -19 35 C-18.03320312 34.79503906 -17.06640625 34.59007812 -16.0703125 34.37890625 C-14.75526372 34.10650329 -13.44015632 33.83438328 -12.125 33.5625 C-10.84882812 33.29566406 -9.57265625 33.02882812 -8.2578125 32.75390625 C-3.53889617 31.84537272 1.21591048 31.41208268 6 31 C5.77877638 27.4559256 5.51790622 23.91582719 5.25 20.375 C5.188125 19.37597656 5.12625 18.37695312 5.0625 17.34765625 C4.58022225 11.27899456 3.72484187 7.79989786 0 3 C0 2.01 0 1.02 0 0 Z " fill="#9A292B" transform="translate(67,17)"/>
<path d="M0 0 C0.90369324 -0.00350464 1.80738647 -0.00700928 2.73846436 -0.01062012 C5.69811904 -0.01935585 8.65753078 -0.01361726 11.6171875 -0.00683594 C13.69026739 -0.00818493 15.76334697 -0.01012742 17.83642578 -0.01263428 C22.17027819 -0.0155745 26.50404787 -0.01132341 30.83789062 -0.00195312 C36.37568753 0.00944068 41.91329052 0.0028753 47.45108032 -0.00909805 C51.7286117 -0.01634643 56.00609758 -0.01401506 60.28363037 -0.00884247 C62.32484968 -0.00751421 64.36607321 -0.00912464 66.4072876 -0.01380157 C69.26642708 -0.01891591 72.1252583 -0.01108802 74.984375 0 C75.81684753 -0.00404846 76.64932007 -0.00809692 77.50701904 -0.01226807 C84.46407339 0.03737832 90.80620647 0.24347344 96.51722717 4.52850342 C100.02951489 9.54582354 99.15808625 16.09884356 99.09155273 21.94335938 C99.09341804 23.34000077 99.09745736 24.7366407 99.10350037 26.13327026 C99.11345538 29.9142076 99.09234124 33.69439249 99.06502032 37.47522068 C99.0411597 41.43274524 99.04413507 45.39025568 99.04371643 49.34783936 C99.03909257 55.98885822 99.01547349 62.62958981 98.97924805 69.27050781 C98.9374482 76.95391518 98.91992901 84.63706428 98.9166283 92.32057881 C98.91303299 100.49912004 98.89417096 108.6775681 98.86950803 116.85607052 C98.86327306 119.21501389 98.85964087 121.57395017 98.85647392 123.93289948 C98.85058576 127.63313033 98.83430771 131.33317561 98.80986977 135.03332901 C98.79884663 137.04389201 98.79758904 139.05450104 98.79656982 141.06509399 C98.7865947 142.25398224 98.77661957 143.44287048 98.76634216 144.66778564 C98.76169166 145.70530598 98.75704115 146.74282631 98.75224972 147.81178665 C98.4921875 150.25878906 98.4921875 150.25878906 96.4921875 152.25878906 C96.4921875 106.05878906 96.4921875 59.85878906 96.4921875 12.25878906 C95.8321875 13.57878906 95.1721875 14.89878906 94.4921875 16.25878906 C94.09 14.55722656 94.09 14.55722656 93.6796875 12.82128906 C93.091875 11.05785156 93.091875 11.05785156 92.4921875 9.25878906 C91.5021875 8.92878906 90.5121875 8.59878906 89.4921875 8.25878906 C89.3890625 8.85691406 89.2859375 9.45503906 89.1796875 10.07128906 C88.37025732 12.64674872 87.58909596 13.57992458 85.4921875 15.25878906 C83.42304993 15.65751648 83.42304993 15.65751648 81.02075195 15.69116211 C79.66969109 15.72085335 79.66969109 15.72085335 78.29133606 15.75114441 C77.32249985 15.75753433 76.35366364 15.76392426 75.35546875 15.77050781 C73.86360298 15.79743462 73.86360298 15.79743462 72.34159851 15.8249054 C69.1626714 15.87911922 65.98389537 15.91293989 62.8046875 15.94628906 C60.65036955 15.97945233 58.49607156 16.01394105 56.34179688 16.04980469 C51.05872923 16.13485179 45.77564229 16.20315465 40.4921875 16.25878906 C40.1621875 16.91878906 39.8321875 17.57878906 39.4921875 18.25878906 C36.84565619 17.95146919 34.2000725 17.63819585 31.5546875 17.32128906 C30.79994141 17.23427734 30.04519531 17.14726562 29.26757812 17.05761719 C23.60546875 16.37207031 23.60546875 16.37207031 22.4921875 15.25878906 C20.37244953 15.50566618 18.25294014 15.75469828 16.13476562 16.01464844 C11.65621157 16.4284099 7.22806848 16.21996463 2.7421875 16.00878906 C1.82308594 15.98171875 0.90398438 15.95464844 -0.04296875 15.92675781 C-6.23877601 15.6487983 -10.00400722 14.76259435 -14.5078125 10.25878906 C-17.53051772 9.51878523 -17.53051772 9.51878523 -20.5078125 9.25878906 C-22.23440501 10.98538158 -21.65119355 13.30112508 -21.66603088 15.65602112 C-21.6758197 16.8269632 -21.68560852 17.99790527 -21.69569397 19.20433044 C-21.70144943 20.50048782 -21.7072049 21.7966452 -21.71313477 23.13208008 C-21.7227081 24.50167134 -21.73271785 25.87125961 -21.74313354 27.24084473 C-21.77024781 30.96998636 -21.79122193 34.69914074 -21.81113553 38.42832685 C-21.83295501 42.32145863 -21.86036339 46.21455085 -21.88719177 50.10765076 C-21.93717344 57.48474183 -21.98209189 64.8618548 -22.02521414 72.23898882 C-22.07453983 80.63549258 -22.12947521 89.03195667 -22.18489373 97.42842209 C-22.29879778 114.70517443 -22.40561838 131.98196357 -22.5078125 149.25878906 C-22.8378125 149.25878906 -23.1678125 149.25878906 -23.5078125 149.25878906 C-24.43042396 142.21481847 -24.65602907 135.32782507 -24.65307617 128.22827148 C-24.65643478 127.05629715 -24.6597934 125.88432281 -24.66325378 124.67683411 C-24.67271203 120.82263107 -24.67470427 116.96847171 -24.67578125 113.11425781 C-24.6772065 111.77815545 -24.6788028 110.44205326 -24.68056679 109.10595131 C-24.68979593 102.10895993 -24.69390471 95.1119875 -24.69311523 88.11499023 C-24.69251501 81.624045 -24.70306228 75.13318301 -24.7188589 68.64225882 C-24.7319936 63.04278147 -24.73729666 57.44333113 -24.73665982 51.84383851 C-24.73640659 48.51130136 -24.74010109 45.17889698 -24.74983788 41.84636497 C-24.75969798 38.12333754 -24.756736 34.40052149 -24.75073242 30.67749023 C-24.75635193 29.59398285 -24.76197144 28.51047546 -24.76776123 27.39413452 C-24.69278162 8.98182428 -24.69278162 8.98182428 -20.69037151 3.99378872 C-15.0339716 -0.50269996 -6.91922077 -0.0336494 0 0 Z " fill="#EAE4D7" transform="translate(42.5078125,0.7412109375)"/>
<path d="M0 0 C13.04785435 -0.04636648 26.09568905 -0.0818912 39.14360905 -0.10362434 C45.20245845 -0.11405581 51.26125143 -0.12820354 57.32006836 -0.15087891 C63.16854341 -0.17262977 69.01696423 -0.18457342 74.86547661 -0.18975449 C77.09536022 -0.19344619 79.32524091 -0.20065516 81.55510139 -0.21146011 C84.68141185 -0.22600466 87.80749898 -0.22797668 90.93383789 -0.22705078 C91.85309555 -0.23424133 92.77235321 -0.24143188 93.71946716 -0.24884033 C98.85403588 -0.2324152 103.21014287 0.06453763 108 2 C111.08753866 5.16775098 111.37492202 7.5134077 111.3742218 11.85842896 C111.38123611 13.05584717 111.38825043 14.25326538 111.39547729 15.48696899 C111.38783356 16.79725067 111.38018982 18.10753235 111.37231445 19.45751953 C111.37474288 20.85386425 111.37846269 22.25020723 111.38337708 23.64654541 C111.39278114 27.43567109 111.38336578 31.22453826 111.37004495 35.01364374 C111.35873136 38.97653398 111.36283777 42.93941148 111.36479187 46.90231323 C111.36567467 53.55519844 111.35459571 60.20798171 111.33618164 66.86083984 C111.31499682 74.55896604 111.3115079 82.2569431 111.3177436 89.95509255 C111.32343173 97.35546666 111.31779925 104.75578811 111.30657005 112.15615463 C111.30191851 115.3084396 111.30105258 118.46069242 111.3031559 121.61297989 C111.30503512 125.32136675 111.29696337 129.0296011 111.2810955 132.73795319 C111.27480779 134.75332173 111.27836669 136.76871337 111.28216553 138.78408813 C111.27508072 139.9758667 111.26799591 141.16764526 111.26069641 142.39553833 C111.25761711 143.95571528 111.25761711 143.95571528 111.25447559 145.54741096 C111 148 111 148 109 150 C109 103.8 109 57.6 109 10 C108.34 11.32 107.68 12.64 107 14 C106.5978125 12.2984375 106.5978125 12.2984375 106.1875 10.5625 C105.5996875 8.7990625 105.5996875 8.7990625 105 7 C104.01 6.67 103.02 6.34 102 6 C101.896875 6.598125 101.79375 7.19625 101.6875 7.8125 C100.87806982 10.38795966 100.09690846 11.32113552 98 13 C95.93086243 13.39872742 95.93086243 13.39872742 93.52856445 13.43237305 C92.17750359 13.46206429 92.17750359 13.46206429 90.79914856 13.49235535 C89.83031235 13.49874527 88.86147614 13.50513519 87.86328125 13.51171875 C86.37141548 13.53864555 86.37141548 13.53864555 84.84941101 13.56611633 C81.6704839 13.62033016 78.49170787 13.65415083 75.3125 13.6875 C73.15818205 13.72066326 71.00388406 13.75515199 68.84960938 13.79101562 C63.56654173 13.87606272 58.28345479 13.94436558 53 14 C52.67 14.66 52.34 15.32 52 16 C49.35346869 15.69268013 46.707885 15.37940678 44.0625 15.0625 C42.93038086 14.93198242 42.93038086 14.93198242 41.77539062 14.79882812 C36.11328125 14.11328125 36.11328125 14.11328125 35 13 C32.88026203 13.24687711 30.76075264 13.49590922 28.64257812 13.75585938 C24.16402407 14.16962084 19.73588098 13.96117557 15.25 13.75 C14.33089844 13.72292969 13.41179688 13.69585937 12.46484375 13.66796875 C6.26903649 13.39000923 2.50380528 12.50380528 -2 8 C-3.98821313 7.60235737 -5.98944339 7.26224651 -8 7 C-7.67 6.01 -7.34 5.02 -7 4 C-7 4.66 -7 5.32 -7 6 C-5.63875 5.9071875 -5.63875 5.9071875 -4.25 5.8125 C-0.70761168 6.01686856 0.52653696 6.52653696 3 9 C3 9.66 3 10.32 3 11 C34.35 10.67 65.7 10.34 98 10 C98.66 8.35 99.32 6.7 100 5 C68.32 4.67 36.64 4.34 4 4 C4 3.34 4 2.68 4 2 C2.68 1.34 1.36 0.68 0 0 Z " fill="#E1D7C6" transform="translate(30,3)"/>
<path d="M0 0 C0.33 0.66 0.66 1.32 1 2 C1.62337753 1.83766876 2.24675507 1.67533752 2.88902283 1.50808716 C7.19590922 0.8046832 11.41867372 0.86102077 15.77563477 0.87060547 C16.75505035 0.86885315 17.73446594 0.86710083 18.74356079 0.86529541 C21.97619404 0.86089944 25.20877245 0.86380675 28.44140625 0.8671875 C30.68912262 0.86651387 32.93683893 0.86554335 35.18455505 0.86428833 C39.89281916 0.86281446 44.60106428 0.86495617 49.30932617 0.86962891 C55.34764648 0.87532928 61.38592238 0.87204326 67.42424107 0.86605644 C72.06443111 0.86244527 76.70461059 0.86359193 81.34480095 0.86618423 C83.57157331 0.86685179 85.79834663 0.86603105 88.02511787 0.86370468 C91.13469106 0.86116872 94.24419197 0.86503202 97.35375977 0.87060547 C98.27594803 0.86858124 99.19813629 0.86655701 100.14826965 0.86447144 C101.42042328 0.86870117 101.42042328 0.86870117 102.71827698 0.87301636 C103.45290444 0.87339338 104.18753191 0.87377041 104.94442081 0.87415886 C107.07100385 1.00434681 108.95428808 1.41894212 111 2 C111 2.66 111 3.32 111 4 C111.99 4.99 111.99 4.99 113 6 C112.67 6.66 112.34 7.32 112 8 C107.3372609 9.45654215 102.38310209 9.14773324 97.54736328 9.14526367 C96.60202728 9.14862228 95.65669128 9.1519809 94.68270874 9.15544128 C91.56189658 9.16492953 88.44113818 9.16689331 85.3203125 9.16796875 C83.14704364 9.17118271 80.973775 9.17454689 78.80050659 9.17805481 C74.2460683 9.18404069 69.69164898 9.18589525 65.13720703 9.18530273 C59.30765406 9.18520112 53.47822291 9.19885498 47.64869881 9.21607494 C43.1602218 9.22720519 38.67177415 9.22922163 34.18328476 9.22869301 C32.03434708 9.22987151 29.8854086 9.234286 27.73648453 9.24202538 C24.72804531 9.25184619 21.71986943 9.24893892 18.71142578 9.24291992 C17.82807556 9.24853943 16.94472534 9.25415894 16.03460693 9.25994873 C10.9817088 9.23432027 6.75659079 8.76351979 2 7 C0.08730376 4.42201811 0 3.24244455 0 0 Z " fill="#A39885" transform="translate(22,150)"/>
<path d="M0 0 C7.26 0 14.52 0 22 0 C26.15911873 8.31823747 22.49018218 17.60632575 20.03515625 26.12890625 C19 29 19 29 17 31 C13.11934944 31 9.58403061 30.56800453 5.75 30 C4.48671875 29.814375 3.2234375 29.62875 1.921875 29.4375 C0.95765625 29.293125 -0.0065625 29.14875 -1 29 C-1.16850035 19.28314621 -0.62533962 9.6927641 0 0 Z " fill="#C9B59F" transform="translate(86,54)"/>
<path d="M0 0 C32.34 0 64.68 0 98 0 C97 5 97 5 96 6 C93.04753646 6.09526806 90.11851579 6.12552452 87.16577148 6.11352539 C86.23903625 6.11367142 85.31230103 6.11381744 84.35748291 6.1139679 C81.27866313 6.11326838 78.19990303 6.10547421 75.12109375 6.09765625 C72.99259982 6.09579221 70.86410547 6.09436824 68.73561096 6.09336853 C63.1213768 6.08954228 57.50716832 6.07971108 51.89294434 6.06866455 C46.16886747 6.05845273 40.44478647 6.0538714 34.72070312 6.04882812 C23.48045744 6.03808891 12.24023085 6.0210112 1 6 C1 5.34 1 4.68 1 4 C0.34 4 -0.32 4 -1 4 C-0.67 2.68 -0.34 1.36 0 0 Z " fill="#FEF8E9" transform="translate(32,8)"/>
<path d="M0 0 C0.77528479 3.42573937 1.11918778 6.57239245 1.09765625 10.08203125 C1.09443359 11.01337891 1.09121094 11.94472656 1.08789062 12.90429688 C1.07951172 13.86400391 1.07113281 14.82371094 1.0625 15.8125 C1.05798828 16.79154297 1.05347656 17.77058594 1.04882812 18.77929688 C1.03708684 21.18626111 1.02066419 23.59309857 1 26 C-0.01320313 26.12117188 -1.02640625 26.24234375 -2.0703125 26.3671875 C-3.4219151 26.53613783 -4.77347542 26.70542669 -6.125 26.875 C-6.79015625 26.95363281 -7.4553125 27.03226563 -8.140625 27.11328125 C-12.30378644 27.64388026 -16.06671292 28.54186554 -20 30 C-20.53185633 26.06390652 -21.0485909 22.12597366 -21.5625 18.1875 C-21.71396484 17.06794922 -21.86542969 15.94839844 -22.02148438 14.79492188 C-22.16005859 13.72177734 -22.29863281 12.64863281 -22.44140625 11.54296875 C-22.57232666 10.55321045 -22.70324707 9.56345215 -22.83813477 8.54370117 C-23 6 -23 6 -22 3 C-14.86023062 0.4182084 -7.53554107 -0.38316311 0 0 Z " fill="#CAB8A1" transform="translate(73,56)"/>
<path d="M0 0 C0.66 0 1.32 0 2 0 C1.125 4.875 1.125 4.875 0 6 C-2.95246354 6.09526806 -5.88148421 6.12552452 -8.83422852 6.11352539 C-9.76096375 6.11367142 -10.68769897 6.11381744 -11.64251709 6.1139679 C-14.72133687 6.11326838 -17.80009697 6.10547421 -20.87890625 6.09765625 C-23.00740018 6.09579221 -25.13589453 6.09436824 -27.26438904 6.09336853 C-32.8786232 6.08954228 -38.49283168 6.07971108 -44.10705566 6.06866455 C-49.83113253 6.05845273 -55.55521353 6.0538714 -61.27929688 6.04882812 C-72.51954256 6.03808891 -83.75976915 6.0210112 -95 6 C-95 5.34 -95 4.68 -95 4 C-93.30324127 3.98786972 -93.30324127 3.98786972 -91.57220459 3.97549438 C-80.91886085 3.89805428 -70.26564515 3.81032032 -59.61246872 3.71247292 C-54.13538909 3.66249878 -48.65832886 3.61616874 -43.18115234 3.578125 C-37.8966921 3.54128646 -32.61239367 3.49493022 -27.32807159 3.44193649 C-25.31065963 3.42338497 -23.29321298 3.40827982 -21.27574921 3.39665604 C-18.45286949 3.3798067 -15.63036098 3.35077462 -12.80761719 3.31884766 C-11.97108109 3.31668747 -11.13454498 3.31452728 -10.2726593 3.31230164 C-4.83849519 3.23675559 -4.83849519 3.23675559 0 1 C0 0.67 0 0.34 0 0 Z " fill="#F4E7D5" transform="translate(128,8)"/>
<path d="M0 0 C0.33 0.66 0.66 1.32 1 2 C2.3921875 1.87625 2.3921875 1.87625 3.8125 1.75 C7 2 7 2 8.875 4 C9.431875 4.99 9.431875 4.99 10 6 C9.01 6 8.02 6 7 6 C6.34 5.34 5.68 4.68 5 4 C1.88214887 4.64644661 1.88214887 4.64644661 1 7 C0.89465792 8.82422981 0.85338835 10.65229075 0.84178162 12.47952271 C0.8319928 13.64342529 0.82220398 14.80732788 0.81211853 16.00650024 C0.80636307 17.28971161 0.8006076 18.57292297 0.79467773 19.89501953 C0.78510136 21.2549062 0.77509142 22.61478988 0.76467896 23.97467041 C0.73759773 27.67276204 0.71660563 31.37086647 0.69667697 35.06900263 C0.67483723 38.9314321 0.64743871 42.79382195 0.62062073 46.65621948 C0.57066658 53.97307007 0.52573787 61.28994261 0.48259836 68.6068362 C0.43324922 76.93564986 0.37832249 85.26442378 0.32291877 93.59319901 C0.20905695 110.72876263 0.10222708 127.86436311 0 145 C-0.33 145 -0.66 145 -1 145 C-1.0233433 126.53731414 -1.04098623 108.07463126 -1.05181217 89.61193371 C-1.05697208 81.03970535 -1.06400899 72.46748615 -1.07543945 63.89526367 C-1.08539559 56.42515743 -1.09185565 48.95505781 -1.09408849 41.48494512 C-1.09539401 37.52829213 -1.0984699 33.57165813 -1.10573006 29.61501122 C-1.11250491 25.8927764 -1.11461396 22.17056842 -1.11310768 18.44832802 C-1.11351503 16.42713708 -1.11890262 14.40594908 -1.12442017 12.38476562 C-1.1230455 11.18583176 -1.12167084 9.98689789 -1.12025452 8.75163269 C-1.12117631 7.70724124 -1.1220981 6.66284979 -1.12304783 5.58681011 C-1 3 -1 3 0 0 Z " fill="#C9BEA8" transform="translate(21,8)"/>
<path d="M0 0 C0.33 0.66 0.66 1.32 1 2 C2.3921875 1.87625 2.3921875 1.87625 3.8125 1.75 C7 2 7 2 8.875 4 C9.431875 4.99 9.431875 4.99 10 6 C9.01 6 8.02 6 7 6 C6.34 5.34 5.68 4.68 5 4 C1.88214887 4.64644661 1.88214887 4.64644661 1 7 C0.84339117 9.62380313 0.7417092 12.22524852 0.68359375 14.8515625 C0.66281265 15.62559418 0.64203156 16.39962585 0.62062073 17.19711304 C0.55516552 19.67298392 0.49625913 22.14896202 0.4375 24.625 C0.39431093 26.30209448 0.35069652 27.97917807 0.30664062 29.65625 C0.19948829 33.77072308 0.09820955 37.88530414 0 42 C-0.33 42 -0.66 42 -1 42 C-1.02470469 36.50073576 -1.04286223 31.00150378 -1.05493164 25.50219727 C-1.05996279 23.63109779 -1.06678835 21.76000225 -1.07543945 19.88891602 C-1.08755829 17.20067372 -1.09324047 14.51248336 -1.09765625 11.82421875 C-1.10281754 10.98662521 -1.10797882 10.14903168 -1.11329651 9.28605652 C-1.11362064 5.93624258 -1.06684515 3.20053544 0 0 Z " fill="#CBC2AE" transform="translate(21,8)"/>
<path d="M0 0 C1.15371094 0.00322266 2.30742188 0.00644531 3.49609375 0.00976562 C4.68589844 0.01814453 5.87570313 0.02652344 7.1015625 0.03515625 C8.92107422 0.04192383 8.92107422 0.04192383 10.77734375 0.04882812 C13.76046757 0.06057271 16.74348929 0.07699785 19.7265625 0.09765625 C16.11066238 2.06934518 13.61760592 2.31267893 9.4765625 2.22265625 C8.39890625 2.20460938 7.32125 2.1865625 6.2109375 2.16796875 C5.39109375 2.14476562 4.57125 2.1215625 3.7265625 2.09765625 C3.3965625 2.75765625 3.0665625 3.41765625 2.7265625 4.09765625 C-4.6984375 3.10765625 -4.6984375 3.10765625 -12.2734375 2.09765625 C-12.2734375 1.76765625 -12.2734375 1.43765625 -12.2734375 1.09765625 C-8.12420692 0.31185832 -4.22050319 -0.02089358 0 0 Z " fill="#D8C7B3" transform="translate(79.2734375,14.90234375)"/>
<path d="M0 0 C0.33 0.66 0.66 1.32 1 2 C2.3921875 1.87625 2.3921875 1.87625 3.8125 1.75 C7 2 7 2 8.875 4 C9.431875 4.99 9.431875 4.99 10 6 C9.01 6 8.02 6 7 6 C6.34 5.34 5.68 4.68 5 4 C3.02 4.66 1.04 5.32 -1 6 C-0.67 4.02 -0.34 2.04 0 0 Z " fill="#D8CCB9" transform="translate(21,8)"/>
</svg>
